<?xml version="1.0" encoding="utf-8"?><svg xmlns="http://www.w3.org/2000/svg" xmlns:xlink="http://www.w3.org/1999/xlink"><symbol preserveAspectRatio="xMidYMid" viewBox="0 0 16 16" id="close" xmlns="http://www.w3.org/2000/svg"><path d="M16 1.6L14.4 0 8 6.4 1.6 0 0 1.6 6.4 8 0 14.4 1.6 16 8 9.6l6.4 6.4 1.6-1.6L9.6 8 16 1.6z" class="acls-1"/></symbol><symbol preserveAspectRatio="xMidYMid" viewBox="0 0 6.22 14" id="facebook" xmlns="http://www.w3.org/2000/svg"><path d="M4.032 13.998V7.612h1.833l.273-2.488H4.032V3.535c0-.72.171-1.212 1.053-1.212h1.127V.095a12.634 12.634 0 0 0-1.64-.097c-1.626 0-2.734 1.163-2.734 3.293v1.838H-.001v2.488h1.839v6.381h2.194z" class="bcls-1"/></symbol><symbol preserveAspectRatio="xMidYMid" viewBox="0 0 13.22 13.22" id="instagram" xmlns="http://www.w3.org/2000/svg"><path d="M13.162 9.335c-.03.7-.142 1.186-.306 1.604a3.221 3.221 0 0 1-.76 1.17 3.225 3.225 0 0 1-1.168.762c-.418.163-.898.275-1.602.306-.704.035-.928.041-2.724.041-1.796 0-2.02-.01-2.724-.041-.699-.031-1.183-.143-1.602-.306a3.233 3.233 0 0 1-1.168-.762 3.234 3.234 0 0 1-.76-1.17c-.163-.418-.275-.899-.306-1.604C.006 8.63.001 8.406.001 6.607c0-1.799.01-2.023.041-2.728.031-.7.143-1.186.306-1.604.168-.435.393-.802.76-1.171A3.23 3.23 0 0 1 2.276.343c.419-.164.898-.276 1.602-.306.704-.036.928-.042 2.724-.042 1.796 0 2.02.01 2.724.042.699.03 1.184.142 1.602.306.434.169.801.393 1.168.761.368.369.592.736.76 1.171.164.418.276.9.306 1.604.036.705.041.929.041 2.728 0 1.799-.01 2.023-.041 2.728zm-1.188-5.4c-.031-.644-.138-.992-.23-1.226a2.07 2.07 0 0 0-.494-.762 2.043 2.043 0 0 0-.761-.495c-.229-.092-.581-.2-1.224-.23-.694-.036-.908-.041-2.668-.041-1.76 0-1.969.01-2.668.041-.643.03-.989.138-1.224.23a2.065 2.065 0 0 0-.76.495c-.23.23-.378.455-.495.762-.092.229-.199.582-.23 1.226-.035.694-.04.909-.04 2.672 0 1.762.01 1.972.04 2.672.031.643.138.991.23 1.226.122.311.265.531.495.761.229.23.454.378.76.496.229.092.581.198 1.224.23.694.036.903.041 2.668.041 1.765 0 1.969-.01 2.668-.041.643-.032.99-.138 1.224-.23.312-.123.531-.266.761-.496.229-.23.377-.455.494-.761.092-.23.199-.583.23-1.226.03-.694.041-.91.041-2.672 0-1.763-.011-1.973-.041-2.672zm-1.852-.067a.79.79 0 1 1 0-1.582.79.79 0 0 1 0 1.582zm-3.525 6.136a3.396 3.396 0 0 1-3.392-3.397 3.397 3.397 0 0 1 3.392-3.398 3.397 3.397 0 0 1 3.392 3.398 3.396 3.396 0 0 1-3.392 3.397zm0-5.605a2.207 2.207 0 0 0 0 4.415 2.21 2.21 0 0 0 2.204-2.207 2.204 2.204 0 0 0-2.204-2.208z" class="ccls-1"/></symbol><symbol preserveAspectRatio="xMidYMid" viewBox="0 0 185 123" id="letter" xmlns="http://www.w3.org/2000/svg"><path d="M184.981 3.224a2.908 2.908 0 0 1-.225.865l-.01.03-46.736 105.427a2.926 2.926 0 0 1-2.67 1.739 2.919 2.919 0 0 1-2.153-.949L109.026 83.91 86.33 99.079a2.91 2.91 0 0 1-2.738.269 2.926 2.926 0 0 1-1.747-2.131l-7.657-38.385-44.875-14.06a2.929 2.929 0 0 1-2.049-2.871 2.927 2.927 0 0 1 2.195-2.761L181.342.096l.004-.001.004-.001c.143-.037.286-.06.429-.075l.034-.004c.146-.013.291-.015.434-.006l.029.001c.147.01.291.031.433.062l.024.006c.145.034.287.077.424.132l.014.006c.428.175.813.45 1.12.808l.024.027a2.797 2.797 0 0 1 .28.4c.056.096.109.195.155.3.009.02.015.041.024.062l.025.065c.05.131.093.263.123.396l.005.024c.031.142.052.284.062.428l.002.017a2.87 2.87 0 0 1-.006.425l-.004.056zM86.718 91.781l18.312-12.24-14.154-15.48-10.334-3.238 6.176 30.958zm43.808-58.64l35.119-22.963L40.864 42.256l51.193 16.038 24.166-15.801a2.886 2.886 0 0 1 3.624.378l.042.042a2.904 2.904 0 0 1-.465 4.479L96.98 62.067l37.501 41.016 40.913-92.285-28.89 18.889-12.786 8.36a2.916 2.916 0 0 1-3.661-.382 2.933 2.933 0 0 1 .469-4.524zM100.288 5.859H84.709a2.925 2.925 0 0 1-2.921-2.929A2.925 2.925 0 0 1 84.709.002h15.579a2.925 2.925 0 0 1 2.921 2.928 2.925 2.925 0 0 1-2.921 2.929zM48.683 88.833a2.925 2.925 0 0 1-2.921 2.929H2.921A2.925 2.925 0 0 1 0 88.833a2.925 2.925 0 0 1 2.921-2.928h42.842a2.924 2.924 0 0 1 2.92 2.928zm-2.921 20.5H69.13a2.924 2.924 0 0 1 2.921 2.929 2.924 2.924 0 0 1-2.921 2.928H45.762a2.925 2.925 0 0 1-2.921-2.928 2.925 2.925 0 0 1 2.921-2.929zm116.841 7.809h19.473a2.926 2.926 0 0 1 2.921 2.929 2.925 2.925 0 0 1-2.921 2.928h-19.473a2.925 2.925 0 0 1-2.921-2.928 2.925 2.925 0 0 1 2.921-2.929z" class="dcls-1"/></symbol><symbol preserveAspectRatio="xMidYMid" viewBox="0 0 13.19 13.22" id="linkedin" xmlns="http://www.w3.org/2000/svg"><path d="M10.454 13.22V8.926c0-1.026-.015-2.343-1.42-2.343-1.425 0-1.639 1.118-1.639 2.267v4.37H4.662l-.005-8.832h2.621v1.21h.036c.366-.694 1.257-1.425 2.591-1.425 2.768 0 3.282 1.828 3.282 4.208v4.839h-2.733zM1.573 3.184A1.59 1.59 0 0 1-.015 1.59 1.59 1.59 0 0 1 1.573-.003a1.594 1.594 0 0 1 0 3.187zM2.937 13.22H.199V4.388h2.738v8.832z" class="ecls-1"/></symbol><symbol viewBox="0 0 111.922 921.842" id="logo" xmlns="http://www.w3.org/2000/svg"><path d="M6.383 798.713c.644 1.534 1.831 2.586 3.563 3.154 1.732.569 4.503.854 8.313.854h75.406c3.811 0 6.581-.284 8.313-.854 1.732-.568 2.92-1.633 3.563-3.191.644-1.559 1.039-4.02 1.188-7.385h3.043c-.297 5.641-.445 13.607-.445 23.898 0 10.836.148 18.827.445 23.973h-3.043c-.148-3.661-.544-6.32-1.188-7.979-.643-1.657-1.83-2.795-3.563-3.414-1.731-.618-4.502-.928-8.313-.928H14.176l95.742 36.664v2.449l-97.895 41.043h72.809c5.987 0 10.379-.321 13.174-.965 2.796-.643 4.837-1.967 6.123-3.971 1.287-2.004 2.152-5.281 2.598-9.834h3.043c-.297 3.909-.445 9.377-.445 16.402 0 5.592.148 9.995.445 13.211h-3.043c-.445-3.314-1.299-5.752-2.561-7.311s-3.191-2.622-5.789-3.191c-2.598-.568-6.494-.854-11.689-.854h-68.43c-3.81 0-6.58.285-8.313.854-1.731.569-2.919 1.621-3.563 3.154-.643 1.534-1.039 3.983-1.188 7.348H2.152c.297-3.216.445-7.619.445-13.211 0-9.302-.148-17.293-.445-23.973L76 854.006 2.598 825.951v-10.762c0-10.291-.148-18.258-.445-23.898h3.043c.148 3.414.544 5.889 1.187 7.422zM6.531 683.8c4.354-8.09 10.676-14.361 18.963-18.814 8.288-4.453 18.146-6.68 29.576-6.68 11.183 0 21.078 2.289 29.688 6.865 8.609 4.577 15.289 10.947 20.039 19.111s7.125 17.441 7.125 27.832c0 10.737-2.177 20.15-6.531 28.24-4.354 8.09-10.675 14.35-18.963 18.777-8.287 4.429-18.146 6.643-29.576 6.643-11.182 0-21.078-2.275-29.688-6.828-8.609-4.552-15.289-10.91-20.039-19.074S0 722.406 0 711.966c0-10.688 2.178-20.076 6.531-28.166zm3.006 43.492c4.527 4.23 10.836 7.496 18.926 9.797s17.355 3.451 27.795 3.451c10.539 0 19.816-1.286 27.832-3.859 8.016-2.572 14.201-6.061 18.555-10.465 4.354-4.403 6.531-9.302 6.531-14.695 0-5.591-2.264-10.502-6.791-14.732s-10.836-7.496-18.926-9.797-17.354-3.451-27.795-3.451c-10.489 0-19.754 1.287-27.795 3.859-8.04 2.573-14.237 6.074-18.592 10.502-4.354 4.429-6.531 9.314-6.531 14.658 0 5.591 2.264 10.502 6.791 14.732zM2.672 614.234l-.074-4.75c-.297-14.25-.445-22.191-.445-23.824 0-19.791 4.479-34.598 13.434-44.42 8.956-9.821 22.019-14.732 39.188-14.732 11.034 0 20.695 2.4 28.982 7.199 8.288 4.8 14.695 11.752 19.223 20.855 4.527 9.104 6.791 19.916 6.791 32.434 0 1.484-.074 4.961-.223 10.428-.148 5.468-.223 9.389-.223 11.764 0 10.44.148 18.233.445 23.379h-3.043c-.148-3.364-.544-5.813-1.188-7.348-.643-1.533-1.83-2.585-3.563-3.154-1.731-.568-4.502-.854-8.313-.854H18.258c-3.81 0-6.58.285-8.313.854-1.731.569-2.919 1.621-3.563 3.154-.643 1.534-1.039 3.983-1.188 7.348H2.152c.347-6.482.52-12.592.52-18.333zm99.49-18.109c1.807-.594 3.068-1.682 3.785-3.266.718-1.583 1.076-3.982 1.076-7.199 0-8.361-1.967-15.029-5.9-20.002s-9.673-8.535-17.219-10.688c-7.545-2.152-17.058-3.229-28.537-3.229-11.528 0-20.991 1.15-28.389 3.451-7.396 2.301-12.926 5.95-16.588 10.947-3.661 4.998-5.492 11.554-5.492 19.668 0 3.167.359 5.529 1.076 7.088.718 1.559 1.992 2.635 3.822 3.229 1.831.594 4.553.891 8.164.891h76c3.663.001 6.396-.296 8.202-.89zM104.314 411.559c1.51-1.682 2.313-3.364 2.412-5.047h3.043c-.297 6.086-.445 13.78-.445 23.082 0 10.391.148 18.085.445 23.082h-3.043c-.148-3.81-.618-6.543-1.41-8.201-.791-1.657-2.177-2.486-4.156-2.486-1.533 0-3.934.619-7.199 1.855l-24.938 9.129v33.102l10.465 4.008c7.125 2.771 12.766 4.156 16.922 4.156 3.761 0 6.383-1.113 7.867-3.34s2.301-5.591 2.449-10.094h3.043c-.297 6.828-.445 13.112-.445 18.852 0 4.651.148 8.511.445 11.578h-3.043c-.841-5.047-6.16-9.4-15.957-13.063l-88.914-34.66c.148-1.633.223-3.389.223-5.27 0-1.979-.074-3.735-.223-5.27l95.148-36.887c3.366-1.335 5.803-2.844 7.311-4.526zm-79.376 57.593l41.043 15.734v-30.801l-41.043 15.067zM109.844 296.126c1.385 3.143 2.078 6.915 2.078 11.318 0 5.839-1.237 10.465-3.711 13.879s-6.729 5.641-12.766 6.68l-15.141 2.746c-4.898.891-8.844 1.818-11.838 2.783-2.993.965-5.368 2.351-7.125 4.156-1.756 1.807-2.635 4.193-2.635 7.162v9.871h34.957c3.811 0 6.581-.271 8.313-.816 1.732-.544 2.92-1.583 3.563-3.117.644-1.533 1.039-4.008 1.188-7.422h3.043c-.297 5.394-.445 13.038-.445 22.934 0 10.836.148 18.827.445 23.973h-3.043c-.148-3.364-.544-5.813-1.188-7.348-.643-1.533-1.83-2.585-3.563-3.154-1.731-.568-4.502-.854-8.313-.854H18.258c-3.81 0-6.58.285-8.313.854-1.731.569-2.919 1.621-3.563 3.154-.643 1.534-1.039 3.983-1.188 7.348H2.152c.297-5.146.445-12.84.445-23.082 0-4.057-.049-8.56-.148-13.508-.099-4.947-.148-8.387-.148-10.316 0-13.953 2.289-24.467 6.865-31.543 4.577-7.075 11.096-10.613 19.557-10.613 4.503 0 8.783 1.064 12.84 3.191 4.058 2.128 7.583 5.74 10.576 10.836 2.994 5.097 4.985 11.826 5.975 20.188v-.148c.545-6.135 1.584-11.17 3.117-15.104 1.534-3.934 3.674-7.014 6.42-9.24s6.247-3.785 10.502-4.676l15.66-3.488c4.107-.841 6.952-1.793 8.535-2.857 1.584-1.063 2.375-2.561 2.375-4.49-.049-1.188-.346-2.227-.891-3.117-.544-.891-1.41-1.88-2.598-2.969l1.855-2.078c3.118 2.769 5.37 5.725 6.755 8.867zm-57.446 38.742c-2.177-3.191-5.096-5.393-8.758-6.605-3.661-1.212-8.064-1.818-13.211-1.818-8.313 0-14.596 1.473-18.852 4.416-4.255 2.944-6.383 7.756-6.383 14.436 0 2.722.359 4.738 1.076 6.049.718 1.312 1.979 2.202 3.785 2.672 1.807.471 4.54.705 8.201.705h37.406v-6.531c.002-5.691-1.086-10.132-3.264-13.324zM104.314 177.65c1.51-1.682 2.313-3.364 2.412-5.047h3.043c-.297 6.086-.445 13.78-.445 23.082 0 10.391.148 18.085.445 23.082h-3.043c-.148-3.81-.618-6.543-1.41-8.201-.791-1.657-2.177-2.486-4.156-2.486-1.533 0-3.934.619-7.199 1.855l-24.938 9.129v33.102l10.465 4.008c7.125 2.771 12.766 4.156 16.922 4.156 3.761 0 6.383-1.113 7.867-3.34s2.301-5.591 2.449-10.094h3.043c-.297 6.828-.445 13.112-.445 18.852 0 4.651.148 8.511.445 11.578h-3.043c-.841-5.047-6.16-9.4-15.957-13.063l-88.914-34.66c.148-1.633.223-3.389.223-5.27 0-1.979-.074-3.735-.223-5.27l95.148-36.887c3.366-1.334 5.803-2.843 7.311-4.526zm-79.376 57.594l41.043 15.734v-30.801l-41.043 15.067zM27.98 163.935c-6.927 0-15.536.371-25.828 1.113.297-9.252.445-24.912.445-46.98C2.598 96 2.449 80.39 2.152 71.235c10.292.742 18.901 1.113 25.828 1.113 4.354 0 8.214-.173 11.578-.52v3.488c-8.461 1.683-15.152 3.736-20.076 6.16-4.923 2.425-8.461 5.332-10.613 8.721-2.152 3.39-3.229 7.509-3.229 12.357v3.488h86.836c4.206 0 7.273-.433 9.203-1.299 1.93-.865 3.241-2.399 3.934-4.602.693-2.201 1.064-5.652 1.113-10.354h3.043c-.297 12.766-.445 22.39-.445 28.871 0 6.383.148 15.66.445 27.832h-3.043c-.049-4.75-.42-8.226-1.113-10.428-.692-2.201-2.004-3.723-3.934-4.564-1.93-.841-4.997-1.262-9.203-1.262H5.641v3.34c0 4.898 1.064 9.043 3.191 12.432 2.128 3.39 5.653 6.297 10.576 8.721 4.924 2.425 11.641 4.503 20.15 6.234v3.488c-3.364-.343-7.223-.516-11.578-.516zM6.383 7.422c.644 1.534 1.831 2.573 3.563 3.117 1.732.545 4.503.816 8.313.816h75.406c3.811 0 6.581-.271 8.313-.816 1.732-.544 2.92-1.583 3.563-3.117.644-1.533 1.039-4.008 1.188-7.422h3.043c-.297 5.394-.445 13.038-.445 22.934 0 10.836.148 18.827.445 23.973h-3.043c-.148-3.364-.544-5.813-1.188-7.348-.643-1.533-1.83-2.585-3.563-3.154-1.731-.568-4.502-.854-8.313-.854H18.258c-3.81 0-6.58.285-8.313.854-1.731.569-2.919 1.621-3.563 3.154-.643 1.534-1.039 3.983-1.188 7.348H2.152c.297-5.096.445-13.087.445-23.973 0-9.896-.148-17.54-.445-22.934h3.043c.149 3.414.545 5.889 1.188 7.422z"/></symbol><symbol preserveAspectRatio="xMidYMid" viewBox="0 0 13 10" id="twitter" xmlns="http://www.w3.org/2000/svg"><path d="M4.098 10.001c4.906 0 7.589-3.85 7.589-7.187 0-.108 0-.216-.008-.328a5.271 5.271 0 0 0 1.33-1.309 5.558 5.558 0 0 1-1.534.398A2.56 2.56 0 0 0 12.65.176a5.572 5.572 0 0 1-1.693.615C9.946-.226 8.258-.275 7.185.683c-.693.617-.987 1.536-.771 2.413C4.269 2.996 2.271 2.034.917.458.208 1.614.571 3.089 1.741 3.83A2.751 2.751 0 0 1 .53 3.513v.031c0 1.201.897 2.236 2.141 2.476-.392.1-.804.115-1.203.042.35 1.027 1.35 1.735 2.491 1.753A5.558 5.558 0 0 1 .648 8.9c-.212 0-.424-.011-.636-.034a7.857 7.857 0 0 0 4.086 1.135" class="gcls-1"/></symbol></svg>